<svg xmlns:inkscape="http://www.inkscape.org/namespaces/inkscape" xmlns:sodipodi="http://sodipodi.sourceforge.net/DTD/sodipodi-0.dtd" xmlns="http://www.w3.org/2000/svg" xmlns:svg="http://www.w3.org/2000/svg" version="1.1" id="svg2" width="640" height="640" viewBox="0 0 640 640" sodipodi:docname="HUDHUD AI 1.eps">
  <defs id="defs6">
    <clipPath clipPathUnits="userSpaceOnUse" id="clipPath20">
      <path d="m 1362.32,2891.31 c 553.96,-5.29 916.91,172.68 1210.09,-427.23 462.43,-15.89 911.55,-158.74 1298.2,-412.88 -646.56,183.9 -1087.62,245.35 -1323.17,184.35 -224.01,-81.69 -356.88,-312.6 -314.95,-547.32 92.96,-215.49 125.38,-447.9 99.47,-673.87 84.3,-15.719 171.24,-23.942 260.08,-23.942 778.5,0 1409.58,631.082 1409.58,1409.582 0,778.49 -631.08,1409.58 -1409.58,1409.58 -530.08,0 -991.81,-292.6 -1232.52,-725.09 -169.71,14.02 -356.75,49.6 -561.145,106.71 104.844,-165.29 278.625,-274.52 473.025,-297.31 30.87,-1.49 61.19,-2.3 90.92,-2.58 z m -179.11,-538.07 c 5.05,-154.44 34.92,-302.59 85.77,-440.6 118.55,143.55 190.06,303.68 214.56,480.38 -110.4,21.52 -210.15,47.87 -299.27,79.05 -1.2,-23.87 -1.81,-47.9 -1.81,-72.07 0,-15.65 0.25,-31.23 0.75,-46.76 z" clip-rule="evenodd" id="path18"/>
    </clipPath>
    <linearGradient x1="393.26099" y1="274.39099" x2="86.819" y2="274.39099" gradientUnits="userSpaceOnUse" gradientTransform="scale(10)" spreadMethod="pad" id="linearGradient26">
      <stop style="stop-opacity:1;stop-color:#dddddd" offset="0" id="stop22"/>
      <stop style="stop-opacity:1;stop-color:#fafafa" offset="1" id="stop24"/>
    </linearGradient>
    <clipPath clipPathUnits="userSpaceOnUse" id="clipPath38">
      <path d="m 2501.18,2319.61 c -448.39,-119.21 -800.2,-440.18 -969.3,-848.96 208.6,-237.85 491.01,-398.03 800.12,-455.94 25.84,225.86 -6.6,458.14 -99.51,673.52 -41.93,234.72 90.94,465.63 314.95,547.32 235.55,61 676.61,-0.45 1323.17,-184.35 -598.64,251.98 -1055.12,341.46 -1369.43,268.41 z" clip-rule="evenodd" id="path36"/>
    </clipPath>
    <linearGradient x1="517.24701" y1="349.69" x2="163.306" y2="59.483299" gradientUnits="userSpaceOnUse" gradientTransform="scale(10)" spreadMethod="pad" id="linearGradient44">
      <stop style="stop-opacity:1;stop-color:#dddddd" offset="0" id="stop40"/>
      <stop style="stop-opacity:1;stop-color:#fafafa" offset="1" id="stop42"/>
    </linearGradient>
  </defs>
  <sodipodi:namedview id="namedview4" pagecolor="#ffffff" bordercolor="#000000" borderopacity="0.25" inkscape:showpageshadow="2" inkscape:pageopacity="0.0" inkscape:pagecheckerboard="0" inkscape:deskcolor="#d1d1d1"/>
  <g id="g8" inkscape:groupmode="layer" inkscape:label="ink_ext_XXXXXX" transform="matrix(1.3333333,0,0,-1.3333333,0,640)">
    <g id="g10" transform="scale(0.1)">
      <!-- <path d="m 2592.04,3809.58 c 778.5,0 1409.58,-631.09 1409.58,-1409.58 0,-778.5 -631.08,-1409.582 -1409.58,-1409.582 -778.49,0 -1409.58,631.082 -1409.58,1409.582 0,778.49 631.09,1409.58 1409.58,1409.58" style="fill:#ffffff;fill-opacity:1;fill-rule:evenodd;stroke:none" id="path12"/> -->
      <g id="g14">
        <g id="g16" clip-path="url(#clipPath20)">
          <path d="m 1362.32,2891.31 c 553.96,-5.29 916.91,172.68 1210.09,-427.23 462.43,-15.89 911.55,-158.74 1298.2,-412.88 -646.56,183.9 -1087.62,245.35 -1323.17,184.35 -224.01,-81.69 -356.88,-312.6 -314.95,-547.32 92.96,-215.49 125.38,-447.9 99.47,-673.87 84.3,-15.719 171.24,-23.942 260.08,-23.942 778.5,0 1409.58,631.082 1409.58,1409.582 0,778.49 -631.08,1409.58 -1409.58,1409.58 -530.08,0 -991.81,-292.6 -1232.52,-725.09 -169.71,14.02 -356.75,49.6 -561.145,106.71 104.844,-165.29 278.625,-274.52 473.025,-297.31 30.87,-1.49 61.19,-2.3 90.92,-2.58 z m -179.11,-538.07 c 5.05,-154.44 34.92,-302.59 85.77,-440.6 118.55,143.55 190.06,303.68 214.56,480.38 -110.4,21.52 -210.15,47.87 -299.27,79.05 -1.2,-23.87 -1.81,-47.9 -1.81,-72.07 0,-15.65 0.25,-31.23 0.75,-46.76" style="fill:url(#linearGradient26);fill-opacity:1;fill-rule:nonzero;stroke:none" id="path28"/>
        </g>
      </g>
      <path d="m 2267.38,1598.52 c 65.88,-189.51 86.94,-389.23 64.58,-584.16 37.7,-7.04 75.93,-12.56 114.63,-16.532 21.49,219.162 -11.77,443.662 -101.77,652.302 -130.19,728.57 1152.67,460.71 1525.79,401.07 -646.56,183.9 -1087.62,245.35 -1323.17,184.35 -224.01,-81.69 -356.88,-312.6 -314.95,-547.32 12.77,-29.61 24.41,-59.53 34.89,-89.71" style="fill:#dadada;fill-opacity:1;fill-rule:evenodd;stroke:none" id="path30"/>
      <g id="g32">
        <g id="g34" clip-path="url(#clipPath38)">
          <path d="m 2501.18,2319.61 c -448.39,-119.21 -800.2,-440.18 -969.3,-848.96 208.6,-237.85 491.01,-398.03 800.12,-455.94 25.84,225.86 -6.6,458.14 -99.51,673.52 -41.93,234.72 90.94,465.63 314.95,547.32 235.55,61 676.61,-0.45 1323.17,-184.35 -598.64,251.98 -1055.12,341.46 -1369.43,268.41" style="fill:url(#linearGradient44);fill-opacity:.25;fill-rule:nonzero;stroke:none" id="path46"/>
        </g>
      </g>
    </g>
  </g>
</svg>